# Processed with obj-simplify dev | 2018-06-26T08:31:14Z | https://github.com/jonnenauha/obj-simplify

# Blender v2.78 (sub 0) OBJ File: ''
# www.blender.org

mtllib model.mtl

# vertices [8]

v 0.5 -0.5 -0.5
v 0.5 -0.5 0.5
v -0.5 -0.5 0.5
v -0.5 -0.5 -0.5
v 0.5 0.5 -0.5
v 0.5 0.5 0.5
v -0.5 0.5 0.5
v -0.5 0.5 -0.5

# normals [6]

vn 0 -1 0
vn 0 1 0
vn 1 0 0
vn 0 0 1
vn -1 0 0
vn 0 0 -1

# uvs [4]

vt 0 0
vt 1 0
vt 1 1
vt 0 1

# objects [1]

o Cube
usemtl Material

s off
f 1/1/1 2/2/1 3/3/1 4/4/1
f 5/1/2 8/2/2 7/3/2 6/4/2
f 1/1/3 5/2/3 6/3/3 2/4/3
f 2/1/4 6/2/4 7/3/4 3/4/4
f 3/1/5 7/2/5 8/3/5 4/4/5
f 5/1/6 1/2/6 4/3/6 8/4/6

